<svg width="19" height="18" viewBox="0 0 19 18" fill="none" xmlns="http://www.w3.org/2000/svg">
<path id="Sign-In-Out Icon - Filled" d="M9.5 0C4.532 0 0.5 4.032 0.5 9C0.5 13.968 4.532 18 9.5 18C14.468 18 18.5 13.968 18.5 9C18.5 4.032 14.468 0 9.5 0ZM9.5 2.7C10.994 2.7 12.2 3.906 12.2 5.4C12.2 6.894 10.994 8.1 9.5 8.1C8.006 8.1 6.8 6.894 6.8 5.4C6.8 3.906 8.006 2.7 9.5 2.7ZM9.5 15.48C7.25 15.48 5.261 14.328 4.1 12.582C4.127 10.791 7.7 9.81 9.5 9.81C11.291 9.81 14.873 10.791 14.9 12.582C13.739 14.328 11.75 15.48 9.5 15.48Z" fill="#333333"/>
</svg>
