<svg xmlns:xlink="http://www.w3.org/1999/xlink" xmlns="http://www.w3.org/2000/svg" width="38" height="49" viewBox="0 0 38 49" fill="none">
    <path fill-rule="evenodd" clip-rule="evenodd" d="M18.1288 0.163327C17.9813 0.253353 17.7576 0.487804 17.6317 0.684542C17.1889 1.37596 16.4302 2.96956 16.1704 3.75376C15.9393 4.45119 15.9072 4.66161 15.9026 5.50588C15.8966 6.60563 16.0397 7.03899 16.5603 7.49596C17.4533 8.28008 19.7813 8.30319 20.6918 7.53701C21.5838 6.78644 21.6787 5.07294 20.9327 3.18991C20.6461 2.46687 20.1137 1.38814 19.7225 0.738608C19.2963 0.0307499 18.6996 -0.184594 18.1288 0.163327ZM19.2265 3.33367C19.8774 4.87562 20.0104 5.89035 19.6137 6.287C19.4567 6.44402 19.3411 6.46538 18.6474 6.46538C17.9537 6.46538 17.8381 6.44402 17.6811 6.287C17.2575 5.86348 17.455 4.64651 18.2029 3.07177C18.7119 1.9998 18.6577 1.98595 19.2265 3.33367ZM17.0234 9.61503C16.3379 9.96654 16.3529 9.86558 16.3529 14.1192V17.8542H18.6474H20.9418L20.94 14.1622C20.9383 10.6859 20.9287 10.4494 20.776 10.1128C20.5155 9.53894 20.1801 9.43139 18.6442 9.42914C17.5051 9.42747 17.3558 9.44457 17.0234 9.61503ZM2.73904 32.5829C2.61372 32.6509 2.47513 32.8287 2.42207 32.9895C2.33313 33.259 2.4768 33.6867 4.93803 40.4787C6.66446 45.2429 7.61094 47.7456 7.73342 47.8697L7.91848 48.0574H18.6349H29.3512L29.5417 47.8595C29.6683 47.728 30.5228 45.4867 32.0944 41.1639C33.3936 37.5902 34.5515 34.4089 34.6675 34.0944L34.8782 33.5226L34.6114 33.7472C34.3834 33.939 34.2952 33.9639 34.0051 33.9186C33.8184 33.8895 33.5227 33.8581 33.348 33.8488L33.0302 33.8319L30.7409 40.1312C29.4817 43.5958 28.4514 46.44 28.4512 46.4517C28.451 46.4633 24.0358 46.4633 18.6395 46.4517L8.82808 46.4305L6.5303 40.1103L4.23259 33.7902H3.82243C3.27652 33.7902 2.95788 33.6154 2.83715 33.2497C2.75881 33.0121 2.76415 32.9093 2.86561 32.7059C2.93436 32.568 2.98417 32.4567 2.97616 32.4585C2.96823 32.4604 2.86152 32.5163 2.73904 32.5829Z" fill="#003865"/>
    <path fill-rule="evenodd" clip-rule="evenodd" d="M23.7539 7.2484C23.2936 7.42896 23.1305 7.92789 23.3763 8.4033C23.444 8.53413 23.5418 8.89832 23.5937 9.2127C23.7014 9.86482 23.624 10.2915 23.3161 10.7446C23.0928 11.073 22.3447 11.5071 21.5638 11.7613L21.0006 11.9446V12.7691V13.5937L21.2718 13.538C21.8421 13.421 22.9408 13.004 23.3878 12.7348C23.6443 12.5804 24.072 12.2219 24.3383 11.9382C24.9057 11.3336 25.1708 10.7275 25.2351 9.88844C25.2588 9.57864 25.2991 9.32525 25.3247 9.32525C25.4399 9.32525 26.513 10.0187 26.9632 10.3841C28.4318 11.5759 29.5109 13.6281 29.5109 15.2296C29.5109 16.5463 28.834 17.9336 27.4649 19.4228C26.9073 20.0294 26.8539 20.3644 27.2518 20.7622C27.7525 21.263 28.4377 20.9419 29.3779 19.7659C29.6031 19.4843 29.8037 19.254 29.8237 19.254C29.8438 19.254 30.1665 19.4084 30.5407 19.5971C33.0381 20.8563 34.6536 22.8354 35.3524 25.4912C35.9727 27.8485 35.5543 30.2993 34.2487 31.9568C34.034 32.2295 33.9577 32.2696 33.6548 32.2684C32.847 32.2654 32.267 32.0357 31.2493 31.3157C29.8862 30.3512 26.9181 30.4816 25.7564 31.557C25.3222 31.9589 24.4482 32.267 23.7372 32.2687C22.8686 32.2709 22.0874 31.9844 21.3517 31.3937C20.9521 31.0729 20.187 30.8072 19.2701 30.6709C18.2144 30.5138 16.6436 30.8586 15.9772 31.3937C15.1388 32.0667 14.3383 32.3235 13.3407 32.2392C12.661 32.1817 11.9313 31.9021 11.5725 31.5618C11.2217 31.229 10.5125 30.9267 9.66678 30.7496C8.95466 30.6004 8.77186 30.5914 8.09579 30.6733C7.13604 30.7893 6.36002 31.0677 5.79517 31.4985C5.55396 31.6823 5.244 31.8891 5.10633 31.9577C4.7892 32.1159 4.06916 32.2697 3.64598 32.2697C3.35655 32.2697 3.28721 32.2266 3.02523 31.8835C1.81109 30.2934 1.49963 27.4873 2.3117 25.4538C3.10241 23.4737 4.27474 22.1802 6.33224 21.0174L6.80723 20.7489L7.11627 21.2321C9.21072 24.5066 15.2225 26.108 20.5417 24.8084C22.2217 24.398 24.4015 23.5245 24.5805 23.1899C24.743 22.8862 24.6907 22.4359 24.4669 22.2121C24.1658 21.9109 23.8458 21.9506 22.7175 22.4287C20.6799 23.2922 19.0033 23.6267 16.7037 23.6284C14.1297 23.6303 12.1818 23.1609 10.3686 22.1017C7.98991 20.7121 7.15707 18.257 8.47158 16.5091C9.63274 14.9652 11.9508 14.0831 15.2228 13.9401L16.4117 13.8882V13.0961V12.3039L15.0976 12.3528C10.5461 12.5217 7.42156 14.1764 6.47783 16.9178C6.33449 17.3342 6.28827 17.6696 6.27867 18.3625L6.26616 19.2647L5.58341 19.6295C2.59312 21.2273 0.690232 23.9269 0.301011 27.1236C0.101435 28.7625 0.499334 30.7885 1.28704 32.1446C1.5436 32.5864 2.44711 33.7715 2.52729 33.7715C2.5439 33.7715 2.52329 33.6817 2.48157 33.5719C2.38487 33.3177 2.4547 33.0303 2.67105 32.7912C2.89415 32.5447 2.99861 32.552 2.88297 32.8059C2.76366 33.0678 2.85018 33.4002 3.10349 33.6536C3.26961 33.8196 3.38884 33.855 3.78315 33.855C4.71177 33.855 5.81903 33.4816 6.54015 32.9253C7.73852 32.0008 9.40679 31.9614 10.5864 32.8297C11.2689 33.3322 11.8313 33.5824 12.6149 33.7323C13.4227 33.8869 13.8941 33.8869 14.7018 33.7323C15.4846 33.5826 16.0901 33.3137 16.6612 32.8623C17.1999 32.4364 17.8474 32.2331 18.6644 32.2331C19.4815 32.2331 20.129 32.4364 20.6677 32.8623C21.2272 33.3046 21.8043 33.5615 22.6032 33.7241C23.4039 33.8871 23.8953 33.889 24.7139 33.7323C25.4975 33.5824 26.06 33.3322 26.7425 32.8297C27.4331 32.3213 28.2626 32.1182 29.1362 32.2436C29.8106 32.3404 30.267 32.5393 30.971 33.0433C31.5308 33.444 32.4329 33.7649 33.1936 33.8338C33.4652 33.8584 33.7073 33.9108 33.7316 33.9502C33.756 33.9896 33.9331 34.0219 34.1252 34.0219C34.4521 34.0219 34.5148 33.98 35.1007 33.3703C36.5398 31.8726 37.2133 30.0427 37.21 27.6391C37.2042 23.5778 34.931 19.955 31.2519 18.1442L30.6148 17.8306L30.8298 17.1864C31.02 16.6168 31.0454 16.4026 31.0495 15.3325C31.0536 14.3149 31.0244 14.0195 30.8661 13.4729C30.0573 10.6821 27.7872 8.3897 24.8614 7.40943C24.0262 7.12959 24.0484 7.13285 23.7539 7.2484Z" fill="#0076A8"/>
</svg>