<svg xmlns:xlink="http://www.w3.org/1999/xlink" xmlns="http://www.w3.org/2000/svg" width="438" height="438" viewBox="0 0 8.948 8.689">
  <defs>
    <style>
      .cls-1 {
        fill: #003865;
      }

      .cls-2 {
        fill: #0076a8;
      }
    </style>
  </defs>
  <title>Asset 2</title>
  <g id="Layer_2" data-name="Layer 2">
    <g id="Layer_1-2" data-name="Layer 1">
      <g>
        <path class="cls-1" d="M1.706,2.969l-.413.2a.149.149,0,0,0-.045.034A1.315,1.315,0,0,1,.51,2.783a.7.7,0,0,1-.116-.637A.189.189,0,0,1,.4,2.125a.763.763,0,0,1-.2-.24.851.851,0,0,1-.015-.66A.134.134,0,0,1,.2,1.2L.172,1.166A.662.662,0,0,1,.1.369.779.779,0,0,1,.91.016c.071.017.116.07.206.176A3.369,3.369,0,0,0,2.644,1.268c.77.28.938.623.971.8L3.331,2.2a.139.139,0,0,1-.008-.061c0-.017-.023-.312-.782-.588A3.718,3.718,0,0,1,.886.386C.861.355.832.322.815.3A.481.481,0,0,0,.357.527.364.364,0,0,0,.4.976,1.126,1.126,0,0,0,.9,1.3a.15.15,0,0,1-.1.281,1.723,1.723,0,0,1-.344-.17.467.467,0,0,0,.019.336,1.007,1.007,0,0,0,.62.385.15.15,0,0,1-.044.293A.18.18,0,0,1,1,2.418,2.513,2.513,0,0,1,.67,2.29.391.391,0,0,0,.747,2.6a1.409,1.409,0,0,0,.959.37M8.748,1.2l.028-.032a.664.664,0,0,0,.07-.8A.778.778,0,0,0,8.039.016c-.072.017-.117.07-.207.176A3.369,3.369,0,0,1,6.3,1.268c-.772.281-.939.625-.972.8L5.62,2.2a.158.158,0,0,0,0-.062s0-.306.782-.589A3.707,3.707,0,0,0,8.061.386C8.087.355,8.115.322,8.133.3a.479.479,0,0,1,.458.223.362.362,0,0,1-.047.449A1.121,1.121,0,0,1,8.05,1.3a.15.15,0,1,0,.1.281A1.723,1.723,0,0,0,8.5,1.41a.467.467,0,0,1-.019.336,1.007,1.007,0,0,1-.62.385.15.15,0,0,0,.044.293.161.161,0,0,0,.044-.006,2.488,2.488,0,0,0,.329-.128A.386.386,0,0,1,8.2,2.6a1.411,1.411,0,0,1-.962.37l.413.2A.17.17,0,0,1,7.7,3.2a1.324,1.324,0,0,0,.741-.416.7.7,0,0,0,.115-.637l-.008-.021a.776.776,0,0,0,.2-.24.847.847,0,0,0,.015-.66A.224.224,0,0,0,8.748,1.2M5.706,2.242h0l-.173.084-.172.085-1.848.9-.875.427-.173.085-.019.009V5.219l.771.349V4.2l.02-.01.171-.085L5,3.311l1.1-.547.171-.085.17-.085-.714-.339Z"/>
        <path class="cls-2" d="M7.718,3.229A.123.123,0,0,0,7.7,3.2a.143.143,0,0,0-.045-.035l-.412-.2L5.733,2.256l.714.339-.171.085-.17.085.732.347.343.162.056.026-.02.01L4.472,4.61l-1.064-.5-.171.085-.02.01v.147l1.112.526V8.3L1.505,6.967V3.537l.94.445V3.835l.02-.01.172-.084-.9-.425L1.708,3.3l.056-.026.345-.163,2.363-1.12.888.421.173-.085.173-.084L5.619,2.2l-.287-.136-.8-.377a.151.151,0,0,0-.128,0l-.793.376L3.33,2.2l-1.624.769-.413.2a.137.137,0,0,0-.045.034.142.142,0,0,0-.038.083l0,.018v0l0,.014V7.05l0,.023a.146.146,0,0,0,.085.125L4.408,8.674a.144.144,0,0,0,.128,0L7.651,7.2a.147.147,0,0,0,.084-.112l0-.03,0-.023V3.31a.151.151,0,0,0-.024-.081M7.442,6.966,4.629,8.3V4.868L7.442,3.535Z"/>
      </g>
    </g>
  </g>
</svg>