<svg xmlns:xlink="http://www.w3.org/1999/xlink" xmlns="http://www.w3.org/2000/svg" viewBox="0 0 9 9" width="438"  height="438" ><defs><style>.cls-3{fill:#003764}</style></defs><g id="Layer_2" data-name="Layer 2"><g id="Layer_1-2" data-name="Layer 1"><path style="fill:none" d="M0 0h9v9H0z"/><path d="M6.822 8H1.778A.778.778 0 0 1 1 7.222V2.178a.777.777 0 0 1 .778-.778h4.149a.15.15 0 1 1 0 .3H1.778a.478.478 0 0 0-.477.477v5.045a.478.478 0 0 0 .477.477h5.044a.478.478 0 0 0 .478-.477V2.774a.15.15 0 0 1 .15-.15.15.15 0 0 1 .15.15v4.448A.778.778 0 0 1 6.822 8Z" style="fill:#0075a9"/><path class="cls-3" d="m7.53.055.283.68a.087.087 0 0 0 .075.054l.735.06A.089.089 0 0 1 8.674 1l-.56.48a.089.089 0 0 0-.028.088l.17.717a.089.089 0 0 1-.133.1L7.494 2A.091.091 0 0 0 7.4 2l-.629.384a.089.089 0 0 1-.133-.1l.171-.717a.092.092 0 0 0-.029-.088L6.222 1a.089.089 0 0 1 .051-.151l.734-.06a.087.087 0 0 0 .075-.054l.283-.68a.09.09 0 0 1 .165 0ZM4.029 4.017l-.529.122-.166-.675.92-.264h.634v3.175h-.859Z"/></g></g></svg>
