<svg xmlns="http://www.w3.org/2000/svg" width="19" height="18" viewBox="0 0 19 18" fill="none">
<g clip-path="url(#clip0_2695_7618)">
<path d="M15.2273 10.6363V4.09089C15.2273 3.19089 14.4909 2.45453 13.5909 2.45453H2.13636C1.23636 2.45453 0.5 3.19089 0.5 4.09089V10.6363C0.5 11.5363 1.23636 12.2727 2.13636 12.2727H13.5909C14.4909 12.2727 15.2273 11.5363 15.2273 10.6363ZM7.86364 9.81816C6.50545 9.81816 5.40909 8.7218 5.40909 7.36362C5.40909 6.00544 6.50545 4.90907 7.86364 4.90907C9.22182 4.90907 10.3182 6.00544 10.3182 7.36362C10.3182 8.7218 9.22182 9.81816 7.86364 9.81816ZM17.6818 4.90907C18.1337 4.90907 18.5 5.27539 18.5 5.72726V13.9091C18.5 14.8091 17.7636 15.5454 16.8636 15.5454H3.77273C3.32086 15.5454 2.95455 15.1791 2.95455 14.7273C2.95455 14.2754 3.32086 13.9091 3.77273 13.9091H16.8636V5.72726C16.8636 5.27539 17.2299 4.90907 17.6818 4.90907Z" fill="#333333"/>
</g>
<defs>
<clipPath id="clip0_2695_7618">
<rect width="18" height="18" fill="white" transform="translate(0.5)"/>
</clipPath>
</defs>
</svg>
