<svg width="19" height="18" viewBox="0 0 19 18" fill="none" xmlns="http://www.w3.org/2000/svg">
<g id="icon_3stars 1">
<g id="Group">
<path id="Vector" d="M9.88726 7.08441L11.1751 10.1939C11.2044 10.2632 11.2522 10.3231 11.3132 10.3671C11.3743 10.411 11.4462 10.4374 11.5212 10.4433L14.8742 10.719C14.9544 10.7257 15.0307 10.7559 15.0937 10.8059C15.1567 10.8558 15.2036 10.9233 15.2283 10.9998C15.2531 11.0763 15.2547 11.1584 15.2329 11.2358C15.2112 11.3132 15.167 11.3824 15.106 11.4348L12.548 13.6232C12.4905 13.6711 12.4476 13.7341 12.4243 13.8052C12.401 13.8763 12.3981 13.9525 12.4159 14.0251L13.1845 17.3077C13.2035 17.3862 13.1987 17.4686 13.1708 17.5444C13.1429 17.6202 13.0931 17.686 13.0277 17.7334C12.9624 17.7809 12.8844 17.8078 12.8037 17.8109C12.7229 17.814 12.6431 17.793 12.5744 17.7506L9.70245 15.9905C9.63886 15.9516 9.56577 15.9311 9.49124 15.9311C9.4167 15.9311 9.34361 15.9516 9.28003 15.9905L6.40519 17.7506C6.33641 17.793 6.2566 17.814 6.17589 17.8109C6.09518 17.8078 6.01719 17.7809 5.95183 17.7334C5.88646 17.686 5.83666 17.6202 5.80874 17.5444C5.78083 17.4686 5.77605 17.3862 5.79502 17.3077L6.5812 14.0339C6.59873 13.9612 6.59567 13.8852 6.57235 13.8142C6.54903 13.7432 6.50638 13.6801 6.44919 13.632L3.89704 11.4377C3.83591 11.3852 3.79173 11.3157 3.77008 11.2381C3.74843 11.1604 3.75028 11.0781 3.77539 11.0015C3.8005 10.9249 3.84776 10.8575 3.91118 10.8077C3.9746 10.758 4.05135 10.7281 4.13172 10.722L7.48765 10.455C7.56485 10.4483 7.6385 10.4196 7.69986 10.3723C7.76122 10.325 7.80771 10.261 7.83381 10.1881L9.13335 7.08441C9.16458 7.01064 9.21685 6.94771 9.28363 6.90347C9.3504 6.85922 9.42873 6.83563 9.50884 6.83563C9.58894 6.83563 9.66728 6.85922 9.73405 6.90347C9.80083 6.94771 9.8531 7.01064 9.88433 7.08441H9.88726ZM13.5043 0.243472L13.0466 2.66068C13.0372 2.71497 13.0127 2.76551 12.9758 2.80649C12.939 2.84748 12.8913 2.87726 12.8384 2.89243L10.474 3.5906C10.4154 3.60497 10.3627 3.63704 10.323 3.68243C10.2833 3.72783 10.2586 3.78435 10.2522 3.8443C10.2458 3.90426 10.258 3.96473 10.2872 4.01749C10.3164 4.07025 10.3611 4.11274 10.4153 4.13917L12.5744 5.31257C12.623 5.33842 12.6634 5.37745 12.6909 5.42517C12.7184 5.4729 12.7319 5.52741 12.7298 5.58245L12.6653 8.04367C12.6619 8.10319 12.6767 8.16234 12.7077 8.21324C12.7387 8.26414 12.7845 8.30438 12.839 8.32859C12.8935 8.35281 12.9541 8.35984 13.0126 8.34877C13.0712 8.3377 13.125 8.30904 13.1669 8.26661L14.9593 6.57985C14.9978 6.54365 15.0454 6.51855 15.0971 6.50718C15.1487 6.49582 15.2025 6.49863 15.2526 6.51531L17.573 7.33669C17.6285 7.35815 17.6892 7.36223 17.7471 7.3484C17.8049 7.33457 17.8572 7.30347 17.897 7.25924C17.9368 7.21501 17.9621 7.15974 17.9698 7.10074C17.9774 7.04175 17.9669 6.98183 17.9397 6.92893L16.8895 4.7024C16.8676 4.65337 16.8596 4.59927 16.8663 4.54599C16.8731 4.49271 16.8943 4.4423 16.9277 4.40025L18.4355 2.44947C18.473 2.40345 18.4957 2.34713 18.5006 2.28794C18.5054 2.22875 18.4922 2.16949 18.4626 2.11799C18.433 2.06649 18.3885 2.02517 18.335 1.99951C18.2814 1.97384 18.2213 1.96503 18.1627 1.97424L15.7191 2.28519C15.6632 2.29475 15.6058 2.28792 15.5537 2.26553C15.5017 2.24315 15.4572 2.20616 15.4257 2.15905L14.044 0.129065C14.0122 0.0778304 13.9654 0.0376481 13.9099 0.0139902C13.8544 -0.00966769 13.793 -0.0156513 13.734 -0.00314589C13.675 0.00935957 13.6213 0.0397463 13.5802 0.0838762C13.5391 0.128006 13.5126 0.183734 13.5043 0.243472ZM5.487 0.243472L5.94463 2.66068C5.95407 2.71497 5.97862 2.76551 6.01546 2.80649C6.05229 2.84748 6.09993 2.87726 6.15291 2.89243L8.51438 3.5906C8.57294 3.60497 8.62565 3.63704 8.66533 3.68243C8.70501 3.72783 8.72974 3.78435 8.73615 3.8443C8.74257 3.90426 8.73035 3.96473 8.70116 4.01749C8.67198 4.07025 8.62725 4.11274 8.57305 4.13917L6.41399 5.31257C6.36535 5.33842 6.32497 5.37745 6.29748 5.42517C6.26998 5.4729 6.25648 5.52741 6.25851 5.58245L6.32305 8.04367C6.32648 8.10319 6.31169 8.16234 6.28065 8.21324C6.24961 8.26414 6.20381 8.30438 6.14933 8.32859C6.09485 8.35281 6.03428 8.35984 5.9757 8.34877C5.91712 8.3377 5.8633 8.30904 5.82142 8.26661L4.02905 6.57985C3.99051 6.54365 3.9429 6.51855 3.89126 6.50718C3.83962 6.49582 3.78587 6.49863 3.7357 6.51531L1.40943 7.33376C1.3538 7.35614 1.29265 7.36094 1.23421 7.3475C1.17577 7.33407 1.12286 7.30305 1.08259 7.25863C1.04231 7.2142 1.01662 7.1585 1.00898 7.09903C1.00133 7.03956 1.01209 6.97917 1.03981 6.926L2.09293 4.69947C2.11508 4.65133 2.12378 4.59809 2.11809 4.54541C2.11241 4.49272 2.09257 4.44256 2.06067 4.40025L0.561644 2.44947C0.524107 2.40345 0.501419 2.34713 0.496581 2.28794C0.491743 2.22875 0.504981 2.16949 0.534547 2.11799C0.564113 2.06649 0.608613 2.02517 0.662163 1.99951C0.715714 1.97384 0.775794 1.96503 0.83446 1.97424L3.27807 2.28519C3.33393 2.29475 3.39135 2.28792 3.44341 2.26553C3.49547 2.24315 3.53993 2.20616 3.57142 2.15905L4.9531 0.129065C4.98567 0.079961 5.03228 0.0418042 5.08685 0.0195648C5.14141 -0.00267464 5.20141 -0.00796576 5.25903 0.00438065C5.31665 0.0167271 5.36921 0.0461387 5.40987 0.0887844C5.45053 0.13143 5.47741 0.185333 5.487 0.243472Z" fill="#333333"/>
</g>
</g>
</svg>
