<svg width="14" height="14" viewBox="0 0 14 14" fill="none" xmlns="http://www.w3.org/2000/svg">
<path d="M7.10878 3.19739e-07C5.74531 -0.000414865 4.41234 0.403521 3.27846 1.16072C2.14458 1.91792 1.26071 2.99437 0.738649 4.25393C0.216585 5.51349 0.0797744 6.89958 0.345519 8.2369C0.611264 9.57422 1.26763 10.8027 2.2316 11.767C3.19557 12.7312 4.42384 13.388 5.76108 13.6541C7.09832 13.9203 8.48445 13.7839 9.74417 13.2622C11.0039 12.7405 12.0806 11.857 12.8381 10.7233C13.5957 9.58967 14 8.25682 14 6.89336C13.9984 5.066 13.2719 3.31393 11.9799 2.0216C10.688 0.729267 8.93613 0.0022233 7.10878 3.19739e-07ZM7.10878 12.7351C5.9528 12.7355 4.82267 12.3931 3.86133 11.7511C2.9 11.1091 2.15066 10.1965 1.70809 9.12856C1.26553 8.06066 1.14962 6.88549 1.37504 5.7517C1.60046 4.61792 2.15707 3.57645 2.97447 2.75905C3.79187 1.94165 4.83333 1.38504 5.96712 1.15962C7.10091 0.934205 8.27608 1.05011 9.34398 1.49267C10.4119 1.93524 11.3245 2.68458 11.9665 3.64592C12.6085 4.60725 12.9509 5.73738 12.9505 6.89336C12.9483 8.442 12.3321 9.92657 11.237 11.0216C10.142 12.1167 8.65742 12.7329 7.10878 12.7351ZM10.5429 6.3476L8.97485 7.69101C8.94046 7.72126 8.91488 7.76026 8.90084 7.80386C8.8868 7.84747 8.88481 7.89406 8.89509 7.9387L9.37368 9.94541C9.38461 9.9934 9.38125 10.0435 9.364 10.0896C9.34676 10.1357 9.31639 10.1758 9.27665 10.2048C9.2369 10.2338 9.18952 10.2506 9.14037 10.253C9.09121 10.2554 9.04243 10.2433 9.00004 10.2183L7.23682 9.14356C7.19795 9.11982 7.15328 9.10726 7.10773 9.10726C7.06218 9.10726 7.01751 9.11982 6.97863 9.14356L5.21541 10.2183C5.17303 10.2433 5.12425 10.2554 5.07509 10.253C5.02593 10.2506 4.97856 10.2338 4.93881 10.2048C4.89907 10.1758 4.8687 10.1357 4.85145 10.0896C4.83421 10.0435 4.83084 9.9934 4.84178 9.94541L5.32037 7.9387C5.33064 7.89406 5.32866 7.84747 5.31461 7.80386C5.30057 7.76026 5.275 7.72126 5.2406 7.69101L3.67259 6.3476C3.63511 6.31549 3.60798 6.27299 3.59463 6.22548C3.58127 6.17796 3.5823 6.12755 3.59757 6.08062C3.61284 6.03368 3.64167 5.99232 3.68043 5.96176C3.71919 5.93119 3.76613 5.9128 3.81533 5.90889L5.87242 5.74097C5.91808 5.73804 5.96198 5.72231 5.9991 5.69558C6.03623 5.66885 6.06507 5.6322 6.08233 5.58983L6.87788 3.68387C6.89675 3.63816 6.92876 3.59907 6.96987 3.57157C7.01097 3.54406 7.05932 3.52938 7.10878 3.52938C7.15824 3.52938 7.20658 3.54406 7.24769 3.57157C7.28879 3.59907 7.32081 3.63816 7.33968 3.68387L8.13313 5.58983C8.15038 5.6322 8.17923 5.66885 8.21635 5.69558C8.25348 5.72231 8.29738 5.73804 8.34303 5.74097L10.4001 5.90889C10.4493 5.9128 10.4963 5.93119 10.535 5.96176C10.5738 5.99232 10.6026 6.03368 10.6179 6.08062C10.6332 6.12755 10.6342 6.17796 10.6208 6.22548C10.6075 6.27299 10.5803 6.31549 10.5429 6.3476Z" fill="#333333"/>
</svg>
