<svg width="25" height="33" fill="none" xmlns="http://www.w3.org/2000/svg"><path fill-rule="evenodd" clip-rule="evenodd" d="M11.487.102C7.897.507 4.796 2.43 2.812 5.48 1.463 7.555.776 10.467 1.047 12.96c.283 2.61 1.24 4.764 3.004 6.768.194.22.352.412.352.427 0 .015-.831 1.836-1.848 4.047C1.171 27.212.708 28.273.708 28.43c0 .166.036.24.172.355a.612.612 0 0 0 .334.145c.088 0 1.262-.466 2.608-1.036 1.346-.57 2.476-1.036 2.51-1.036.035 0 .439 1.174.898 2.608.892 2.79.908 2.824 1.266 2.824.32 0 .435-.108.686-.64.132-.28.982-2.127 1.888-4.105.907-1.978 1.663-3.597 1.68-3.598.017 0 .858 1.807 1.87 4.017 1.29 2.822 1.886 4.064 1.999 4.172.111.106.22.154.353.154.395 0 .408-.03 1.291-2.8.447-1.401.823-2.577.836-2.613.015-.04.954.33 2.524.994 1.535.65 2.572 1.059 2.684 1.059.26 0 .479-.23.479-.504 0-.154-.476-1.245-1.854-4.244l-1.853-4.037.418-.47c1.683-1.891 2.67-4.138 2.95-6.716.271-2.498-.414-5.401-1.766-7.48-2.01-3.091-5.095-4.985-8.77-5.384a13.909 13.909 0 0 0-2.424.006Zm2.2 1.786c1.78.194 3.484.82 4.827 1.774.683.485 1.882 1.684 2.367 2.367 1.3 1.829 1.98 4.325 1.786 6.543-.165 1.869-.763 3.54-1.789 4.992-.484.685-1.678 1.88-2.364 2.364a9.984 9.984 0 0 1-10.107.828A8.933 8.933 0 0 1 6.39 19.46a9.697 9.697 0 0 1-2.544-3.211c-.594-1.205-.886-2.26-1.021-3.694-.112-1.186.083-2.72.51-4.006.7-2.11 2.265-4.056 4.232-5.265 1.754-1.077 4.108-1.614 6.12-1.395Zm-1.082 4.194a.534.534 0 0 0-.18.126c-.037.044-.38.834-.764 1.756-.49 1.176-.736 1.704-.828 1.77-.103.074-.506.123-1.934.238-.992.08-1.867.174-1.943.208-.17.078-.257.305-.191.5.03.087.6.614 1.453 1.34.772.658 1.425 1.253 1.451 1.322.034.089-.071.627-.368 1.88-.23.964-.417 1.82-.417 1.902 0 .08.046.206.104.277.21.26.361.2 2.05-.836.949-.58 1.625-.96 1.712-.96.088-.001.75.371 1.708.959 1.646 1.01 1.802 1.076 2.038.862a.393.393 0 0 0 .114-.29c0-.104-.176-.923-.392-1.82-.215-.898-.392-1.726-.392-1.84 0-.204.036-.24 1.45-1.451.947-.81 1.463-1.29 1.486-1.38.041-.165-.093-.452-.233-.495-.093-.03-3.402-.314-3.643-.314-.237 0-.358-.214-1.05-1.876-.386-.924-.744-1.72-.797-1.772-.127-.121-.294-.162-.434-.106Z" fill="#CCC"/></svg>