<svg width="24" height="32" fill="none" xmlns="http://www.w3.org/2000/svg"><path fill-rule="evenodd" clip-rule="evenodd" d="M10.942.526C7.706.857 5.067 2.239 3.038 4.664A11.143 11.143 0 0 0 .792 9.119c-.552 2.258-.472 4.374.245 6.526.55 1.652 1.376 2.987 2.673 4.32.954.98 2.16 1.85 3.268 2.357l.411.188.017 4.53c.018 4.89.005 4.69.302 4.825a.676.676 0 0 0 .471.027c.047-.018.9-.928 1.898-2.022l1.813-1.99.119.126c.065.069.881.963 1.814 1.987s1.736 1.877 1.786 1.896c.206.08.419.033.577-.125l.16-.16V22.546l.565-.277a11.662 11.662 0 0 0 5.246-5.189c1.574-3.14 1.585-6.972.03-10.178a11.411 11.411 0 0 0-7.71-6.108C13.37.544 11.868.431 10.943.526Zm1.81 1.766c2.3.233 4.234 1.114 5.839 2.66 1.66 1.602 2.586 3.428 2.909 5.738.506 3.63-1.127 7.252-4.2 9.31-4.508 3.02-10.508 1.813-13.524-2.721-1.498-2.252-1.954-5.069-1.263-7.795.726-2.865 2.84-5.315 5.579-6.466.677-.284 1.787-.582 2.496-.669.27-.033.552-.069.627-.08.293-.042.997-.031 1.536.023Zm-1.03 4.091c-.152.062-.17.098-.834 1.691-.306.736-.605 1.452-.665 1.592-.073.17-.157.274-.254.311-.08.031-.929.12-1.886.198-.957.078-1.786.166-1.84.195-.201.107-.277.429-.143.6.037.045.674.604 1.417 1.242.787.675 1.363 1.21 1.38 1.28.017.067-.156.905-.383 1.863-.277 1.162-.403 1.793-.38 1.898.038.173.3.344.464.301.055-.014.786-.446 1.625-.96.925-.566 1.58-.934 1.665-.934.084 0 .76.378 1.708.956.863.525 1.61.955 1.66.955.122 0 .365-.195.406-.326.019-.058-.152-.88-.378-1.828-.227-.948-.412-1.783-.412-1.855 0-.165-.062-.106 1.513-1.46 1.32-1.135 1.433-1.261 1.353-1.515-.076-.237-.208-.264-2.075-.415-1.098-.088-1.844-.172-1.91-.213-.07-.045-.358-.666-.818-1.773-.602-1.447-.731-1.716-.857-1.781-.168-.087-.19-.089-.355-.022Z" fill="#CCC"/></svg>